<?xml version="1.0" standalone="no"?>
<!DOCTYPE svg PUBLIC "-//W3C//DTD SVG 20010904//EN"
 "http://www.w3.org/TR/2001/REC-SVG-20010904/DTD/svg10.dtd">
<svg version="1.0" xmlns="http://www.w3.org/2000/svg"
 width="756.000000pt" height="756.000000pt" viewBox="0 0 756.000000 756.000000"
 preserveAspectRatio="xMidYMid meet">
<metadata>
Created by potrace 1.14, written by Peter Selinger 2001-2017
</metadata>
<g transform="translate(0.000000,756.000000) scale(0.100000,-0.100000)"
fill="#000000" stroke="none">
<path d="M3578 6815 c-2 -2 -37 -6 -78 -9 -41 -3 -84 -8 -95 -10 -11 -2 -45
-7 -75 -11 -309 -40 -709 -177 -1015 -348 -108 -60 -354 -222 -375 -247 -3 -3
-25 -21 -50 -40 -78 -61 -102 -82 -240 -220 -116 -115 -253 -273 -310 -356
-191 -282 -285 -454 -376 -691 l-39 -101 -265 -4 c-258 -3 -266 -4 -315 -28
-64 -31 -124 -91 -155 -155 l-25 -50 0 -745 0 -745 25 -50 c30 -62 100 -131
160 -159 41 -19 66 -21 306 -24 l261 -3 51 -132 c122 -315 305 -617 537 -887
53 -62 278 -284 330 -325 28 -22 52 -42 55 -45 27 -30 213 -160 334 -234 324
-198 746 -351 1111 -402 28 -3 59 -8 70 -10 99 -19 510 -26 665 -12 158 14
374 54 520 94 91 26 292 95 334 115 22 10 44 19 48 19 14 0 236 110 313 155
39 23 85 50 104 61 43 25 247 169 302 214 174 141 418 394 524 544 11 16 29
40 41 55 111 141 276 449 364 678 l43 112 251 3 251 3 55 29 c66 34 119 87
151 153 l24 48 0 745 0 745 -25 50 c-30 62 -94 125 -157 156 -46 23 -58 24
-303 27 l-255 4 -44 111 c-151 388 -377 735 -670 1028 -69 69 -153 148 -186
175 -33 27 -68 57 -78 66 -30 26 -205 150 -275 194 -406 254 -847 403 -1349
453 -70 7 -469 12 -475 6z m457 -948 c11 -3 45 -8 75 -12 76 -10 239 -49 335
-80 229 -75 496 -223 684 -379 173 -144 400 -417 485 -583 l17 -33 -1841 0
-1841 0 17 32 c28 55 133 209 192 283 251 315 610 562 993 685 114 37 301 77
395 85 38 4 70 8 72 10 5 5 394 -2 417 -8z m1585 -3087 c-97 -189 -293 -427
-487 -589 -203 -170 -420 -293 -673 -381 -113 -40 -317 -85 -433 -97 -95 -10
-384 -10 -472 0 -399 44 -795 214 -1110 477 -79 66 -258 255 -322 340 -67 91
-132 191 -167 258 l-17 32 1851 0 1850 0 -20 -40z"/>
</g>
</svg>
